<?xml version="1.0" encoding="UTF-8"?>
<svg width="160px" height="182px" viewBox="0 0 160 182" version="1.1" xmlns="http://www.w3.org/2000/svg" xmlns:xlink="http://www.w3.org/1999/xlink">
    <g id="Page-1" stroke="none" stroke-width="1" fill="none" fill-rule="evenodd">
        <g id="Splash" transform="translate(-640.000000, -426.000000)">
            <g id="logo" transform="translate(628.000000, 425.000000)">
                <path d="M96,4.61880215 C93.5247914,3.18973979 90.4752086,3.18973979 88,4.61880215 L18.3256629,44.8452995 C15.8504542,46.2743618 14.3256629,48.915378 14.3256629,51.7735027 L14.3256629,132.226497 C14.3256629,135.084622 15.8504542,137.725638 18.3256629,139.154701 L88,179.381198 C90.4752086,180.81026 93.5247914,180.81026 96,179.381198 L165.674337,139.154701 C168.149546,137.725638 169.674337,135.084622 169.674337,132.226497 L169.674337,51.7735027 C169.674337,48.915378 168.149546,46.2743618 165.674337,44.8452995 L96,4.61880215 Z" id="Polygon" stroke="#D5A66A" stroke-width="4"></path>
                <path d="M49.3027344,103 L49.3022834,93.5642938 C49.2953683,92.4575207 49.2089301,90.3755425 49.0429688,87.3183594 L49.0429688,87.3183594 L49.1660156,87.3183594 L53.9785156,103 L57.8613281,103 L63.015625,87.3457031 L63.1386719,87.3457031 C63.0292969,89.8613281 62.9677734,91.4108073 62.9541016,91.9941406 C62.9404297,92.577474 62.9335938,93.0924479 62.9335938,93.5390625 L62.9335938,93.5390625 L62.9335938,103 L66.8847656,103 L66.8847656,83.0117188 L61.1152344,83.0117188 L56.0976562,98.296875 L56.015625,98.296875 L51.2851562,83.0117188 L45.515625,83.0117188 L45.515625,103 L49.3027344,103 Z M80.2421875,103 L80.2421875,95.2207031 L86.8730469,83.0117188 L82.3066406,83.0117188 L78.1367188,91.2421875 L73.9941406,83.0117188 L69.4003906,83.0117188 L76.03125,95.3574219 L76.03125,103 L80.2421875,103 Z M91.4394531,103 L92.8886719,98.2421875 L100.175781,98.2421875 L101.625,103 L106.191406,103 L99.109375,82.9296875 L93.9277344,82.9296875 L86.8730469,103 L91.4394531,103 Z M99.1640625,94.6875 L93.9550781,94.6875 C95.3769531,90.0846354 96.2382812,87.1998698 96.5390625,86.0332031 C96.6119792,86.3613281 96.7327474,86.8079427 96.9013672,87.3730469 C97.069987,87.938151 97.8242188,90.3763021 99.1640625,94.6875 L99.1640625,94.6875 Z M112.945312,103 L112.945312,95.890625 L114.763672,95.890625 C117.242839,95.890625 119.154622,95.3209635 120.499023,94.1816406 C121.843424,93.0423177 122.515625,91.3971354 122.515625,89.2460938 C122.515625,87.1770833 121.88444,85.6207682 120.62207,84.5771484 C119.359701,83.5335286 117.516276,83.0117188 115.091797,83.0117188 L115.091797,83.0117188 L108.707031,83.0117188 L108.707031,103 L112.945312,103 Z M114.339844,92.4179688 L112.945312,92.4179688 L112.945312,86.484375 L114.873047,86.484375 C116.030599,86.484375 116.880534,86.7213542 117.422852,87.1953125 C117.965169,87.6692708 118.236328,88.4029948 118.236328,89.3964844 C118.236328,90.3808594 117.91276,91.1305339 117.265625,91.6455078 C116.61849,92.1604818 115.643229,92.4179688 114.339844,92.4179688 L114.339844,92.4179688 Z M130.527344,103 L130.527344,95.890625 L132.345703,95.890625 C134.82487,95.890625 136.736654,95.3209635 138.081055,94.1816406 C139.425456,93.0423177 140.097656,91.3971354 140.097656,89.2460938 C140.097656,87.1770833 139.466471,85.6207682 138.204102,84.5771484 C136.941732,83.5335286 135.098307,83.0117188 132.673828,83.0117188 L132.673828,83.0117188 L126.289062,83.0117188 L126.289062,103 L130.527344,103 Z M131.921875,92.4179688 L130.527344,92.4179688 L130.527344,86.484375 L132.455078,86.484375 C133.61263,86.484375 134.462565,86.7213542 135.004883,87.1953125 C135.547201,87.6692708 135.818359,88.4029948 135.818359,89.3964844 C135.818359,90.3808594 135.494792,91.1305339 134.847656,91.6455078 C134.200521,92.1604818 133.22526,92.4179688 131.921875,92.4179688 L131.921875,92.4179688 Z" id="MYAPP" fill="#D5A66A" fill-rule="nonzero"></path>
            </g>
        </g>
    </g>
</svg>