<?xml version="1.0" encoding="UTF-8"?>
<svg width="113px" height="36px" viewBox="0 0 113 36" version="1.1" xmlns="http://www.w3.org/2000/svg" xmlns:xlink="http://www.w3.org/1999/xlink">
    <g id="Page-1" stroke="none" stroke-width="1" fill="none" fill-rule="evenodd">
        <g id="Home" transform="translate(-34.000000, -24.000000)" fill="#D5A66A" fill-rule="nonzero">
            <g id="logo-text" transform="translate(34.000000, 24.302675)">
                <path d="M47.5019531,24.697325 L47.5013804,17.9227241 C47.4948901,17.1237312 47.4332321,15.6482076 47.3164062,13.4961532 L47.3164062,13.4961532 L47.4042969,13.4961532 L50.8417969,24.697325 L53.6152344,24.697325 L57.296875,13.5156844 L57.3847656,13.5156844 C57.3066406,15.3125594 57.2626953,16.4193302 57.2529297,16.8359969 C57.2431641,17.2526636 57.2382812,17.6205021 57.2382812,17.9395125 L57.2382812,17.9395125 L57.2382812,24.697325 L60.0605469,24.697325 L60.0605469,10.4199813 L55.9394531,10.4199813 L52.3554688,21.33795 L52.296875,21.33795 L48.9179688,10.4199813 L44.796875,10.4199813 L44.796875,24.697325 L47.5019531,24.697325 Z M69.6015625,24.697325 L69.6015625,19.1406844 L74.3378906,10.4199813 L71.0761719,10.4199813 L68.0976562,16.2988875 L65.1386719,10.4199813 L61.8574219,10.4199813 L66.59375,19.2383407 L66.59375,24.697325 L69.6015625,24.697325 Z M77.5996094,24.697325 L78.6347656,21.2988875 L83.8398438,21.2988875 L84.875,24.697325 L88.1367188,24.697325 L83.078125,10.3613875 L79.3769531,10.3613875 L74.3378906,24.697325 L77.5996094,24.697325 Z M83.1171875,18.759825 L79.3964844,18.759825 C80.4121094,15.4720646 81.0273438,13.4115177 81.2421875,12.5781844 C81.2942708,12.8125594 81.3805339,13.1315698 81.5009766,13.5352157 C81.6214193,13.9388615 82.1601562,15.680398 83.1171875,18.759825 L83.1171875,18.759825 Z M92.9609375,24.697325 L92.9609375,19.6192 L94.2597656,19.6192 C96.030599,19.6192 97.3961589,19.212299 98.3564453,18.3984969 C99.3167318,17.5846948 99.796875,16.4095646 99.796875,14.8731063 C99.796875,13.3952417 99.3460286,12.2835881 98.4443359,11.5381453 C97.5426432,10.7927026 96.2259115,10.4199813 94.4941406,10.4199813 L94.4941406,10.4199813 L89.9335938,10.4199813 L89.9335938,24.697325 L92.9609375,24.697325 Z M93.9570312,17.1387313 L92.9609375,17.1387313 L92.9609375,12.90045 L94.3378906,12.90045 C95.1647135,12.90045 95.7718099,13.0697209 96.1591797,13.4082625 C96.5465495,13.7468042 96.7402344,14.2708927 96.7402344,14.9805282 C96.7402344,15.6836532 96.5091146,16.2191349 96.046875,16.5869735 C95.5846354,16.954812 94.8880208,17.1387313 93.9570312,17.1387313 L93.9570312,17.1387313 Z M105.519531,24.697325 L105.519531,19.6192 L106.818359,19.6192 C108.589193,19.6192 109.954753,19.212299 110.915039,18.3984969 C111.875326,17.5846948 112.355469,16.4095646 112.355469,14.8731063 C112.355469,13.3952417 111.904622,12.2835881 111.00293,11.5381453 C110.101237,10.7927026 108.784505,10.4199813 107.052734,10.4199813 L107.052734,10.4199813 L102.492188,10.4199813 L102.492188,24.697325 L105.519531,24.697325 Z M106.515625,17.1387313 L105.519531,17.1387313 L105.519531,12.90045 L106.896484,12.90045 C107.723307,12.90045 108.330404,13.0697209 108.717773,13.4082625 C109.105143,13.7468042 109.298828,14.2708927 109.298828,14.9805282 C109.298828,15.6836532 109.067708,16.2191349 108.605469,16.5869735 C108.143229,16.954812 107.446615,17.1387313 106.515625,17.1387313 L106.515625,17.1387313 Z" id="MYAPP"></path>
                <path d="M16.5667181,0.26212421 L30.1986537,8.13252586 C30.8040036,8.4820248 31.1769145,9.12792549 31.1769145,9.82692339 L31.1769145,25.5677267 C31.1769145,26.2667246 30.8040036,26.9126253 30.1986537,27.2621242 L16.5667181,35.1325259 C15.9613682,35.4820248 15.2155463,35.4820248 14.6101964,35.1325259 L0.97826087,27.2621242 C0.372910937,26.9126253 -1.13686838e-13,26.2667246 -1.13686838e-13,25.5677267 L-1.13686838e-13,9.82692339 C-1.13686838e-13,9.12792549 0.372910937,8.4820248 0.97826087,8.13252586 L14.6101964,0.26212421 C15.2155463,-0.0873747367 15.9613682,-0.0873747367 16.5667181,0.26212421 Z M15.5884573,3.04532503 L2.89945727,10.371325 L2.89945727,25.022325 L15.5884573,32.348325 L28.2764573,25.022325 L28.2764573,10.371325 L15.5884573,3.04532503 Z" id="Polygon"></path>
            </g>
        </g>
    </g>
</svg>